<svg width="13" height="17" viewBox="0 0 13 17" fill="none" xmlns="http://www.w3.org/2000/svg">
<path fill-rule="evenodd" clip-rule="evenodd" d="M8.33333 0.208333C8.33333 0.0932739 8.24006 0 8.125 0H2.29167C1.02601 0 0 1.02602 0 2.29167V13.9583C0 15.224 1.02601 16.25 2.29167 16.25H10.625C11.8907 16.25 12.9167 15.224 12.9167 13.9583V5.74755C12.9167 5.63249 12.8234 5.53922 12.7083 5.53922H8.95833C8.61316 5.53922 8.33333 5.25939 8.33333 4.91422V0.208333ZM6.45833 6.45833C5.53786 6.45833 4.79167 7.20453 4.79167 8.125C4.79167 9.04547 5.53786 9.79167 6.45833 9.79167C7.37881 9.79167 8.125 9.04547 8.125 8.125C8.125 7.20453 7.37881 6.45833 6.45833 6.45833ZM3.125 13.5417C3.125 12.161 4.24429 11.0417 5.625 11.0417H7.29167C8.67238 11.0417 9.79167 12.161 9.79167 13.5417C9.79167 14.0019 9.41857 14.375 8.95833 14.375H3.95833C3.4981 14.375 3.125 14.0019 3.125 13.5417Z" fill="white"/>
<path d="M9.58333 0.478446C9.58333 0.3247 9.74387 0.22708 9.8635 0.323655C9.96426 0.405 10.0548 0.500298 10.1321 0.607958L12.6431 4.10621C12.7002 4.18585 12.6383 4.28922 12.5403 4.28922H9.79167C9.67661 4.28922 9.58333 4.19594 9.58333 4.08088V0.478446Z" fill="white"/>
</svg>
